{
	"asset":{
		"generator":"Khronos glTF Blender I/O v3.5.30",
		"version":"2.0"
	},
	"scene":0,
	"scenes":[
		{
			"name":"Scene",
			"nodes":[
				0,
				1,
				2,
				3,
				4,
				5,
				6,
				7,
				8,
				9,
				10,
				11,
				12,
				13,
				14,
				15,
				16,
				17
			]
		}
	],
	"nodes":[
		{
			"mesh":0,
			"name":"Gyeongsangnam-do"
		},
		{
			"mesh":1,
			"name":"Ulsan",
			"translation":[
				0,
				0,
				1.5039536952972412
			]
		},
		{
			"mesh":2,
			"name":"Daegu",
			"translation":[
				0,
				0,
				1.5039536952972412
			]
		},
		{
			"mesh":3,
			"name":"Gyeongsangbuk-do",
			"translation":[
				0,
				0,
				1.5039536952972412
			]
		},
		{
			"mesh":4,
			"name":"Chungcheongnam-do",
			"translation":[
				-1.0884686708450317,
				0.3055228292942047,
				-0.15445280075073242
			]
		},
		{
			"mesh":5,
			"name":"Gyeonggi-do",
			"translation":[
				0,
				0,
				1.5039536952972412
			]
		},
		{
			"mesh":6,
			"name":"Jeju",
			"translation":[
				0,
				0,
				1.5039536952972412
			]
		},
		{
			"mesh":7,
			"name":"seoul",
			"translation":[
				0,
				0,
				1.5039536952972412
			]
		},
		{
			"mesh":8,
			"name":"Gangwon",
			"translation":[
				0,
				0,
				1.5039536952972412
			]
		},
		{
			"mesh":9,
			"name":"Chungcheongbuk-do",
			"translation":[
				0.3227047324180603,
				0.3157173693180084,
				-0.3938335180282593
			]
		},
		{
			"mesh":10,
			"name":"Daejeon",
			"translation":[
				0,
				0,
				1.5039536952972412
			]
		},
		{
			"mesh":11,
			"name":"Jeollabuk-do"
		},
		{
			"mesh":12,
			"name":"Gwangju",
			"scale":[
				0.8475691676139832,
				0.9970617890357971,
				0.8475691676139832
			],
			"translation":[
				-1.1159336566925049,
				0.3592205345630646,
				1.748535394668579
			]
		},
		{
			"mesh":13,
			"name":"Ulleung-gun",
			"translation":[
				0,
				0,
				1.5039536952972412
			]
		},
		{
			"mesh":14,
			"name":"Dokdo",
			"translation":[
				0,
				0,
				1.5039536952972412
			]
		},
		{
			"mesh":15,
			"name":"Busan",
			"translation":[
				0,
				0,
				1.5039536952972412
			]
		},
		{
			"mesh":16,
			"name":"Jeollanam-do"
		},
		{
			"mesh":17,
			"name":"Incheon"
		}
	],
	"materials":[
		{
			"doubleSided":true,
			"name":"map",
			"pbrMetallicRoughness":{
				"baseColorFactor":[
					0.800000011920929,
					0.800000011920929,
					0.800000011920929,
					1
				],
				"metallicFactor":0,
				"roughnessFactor":0.5
			}
		}
	],
	"meshes":[
		{
			"name":"Cube.011",
			"primitives":[
				{
					"attributes":{
						"POSITION":0,
						"TEXCOORD_0":1,
						"NORMAL":2
					},
					"indices":3
				}
			]
		},
		{
			"name":"Cube.013",
			"primitives":[
				{
					"attributes":{
						"POSITION":4,
						"TEXCOORD_0":5,
						"NORMAL":6
					},
					"indices":7
				}
			]
		},
		{
			"name":"Cube.014",
			"primitives":[
				{
					"attributes":{
						"POSITION":8,
						"TEXCOORD_0":9,
						"NORMAL":10
					},
					"indices":11
				}
			]
		},
		{
			"name":"Cube.015",
			"primitives":[
				{
					"attributes":{
						"POSITION":12,
						"TEXCOORD_0":13,
						"NORMAL":14
					},
					"indices":15
				}
			]
		},
		{
			"name":"Cube.017",
			"primitives":[
				{
					"attributes":{
						"POSITION":16,
						"TEXCOORD_0":17,
						"NORMAL":18
					},
					"indices":19
				}
			]
		},
		{
			"name":"Cube.022",
			"primitives":[
				{
					"attributes":{
						"POSITION":20,
						"TEXCOORD_0":21,
						"NORMAL":22
					},
					"indices":23
				}
			]
		},
		{
			"name":"Cube.026",
			"primitives":[
				{
					"attributes":{
						"POSITION":24,
						"TEXCOORD_0":25,
						"NORMAL":26
					},
					"indices":27,
					"material":0
				}
			]
		},
		{
			"name":"Cube.002",
			"primitives":[
				{
					"attributes":{
						"POSITION":28,
						"TEXCOORD_0":29,
						"NORMAL":30
					},
					"indices":31
				}
			]
		},
		{
			"name":"Cube.003",
			"primitives":[
				{
					"attributes":{
						"POSITION":32,
						"TEXCOORD_0":33,
						"NORMAL":34
					},
					"indices":35
				}
			]
		},
		{
			"name":"Cube.004",
			"primitives":[
				{
					"attributes":{
						"POSITION":36,
						"TEXCOORD_0":37,
						"NORMAL":38
					},
					"indices":39
				}
			]
		},
		{
			"name":"Cube.005",
			"primitives":[
				{
					"attributes":{
						"POSITION":40,
						"TEXCOORD_0":41,
						"NORMAL":42
					},
					"indices":43
				}
			]
		},
		{
			"name":"Cube.006",
			"primitives":[
				{
					"attributes":{
						"POSITION":44,
						"TEXCOORD_0":45,
						"NORMAL":46
					},
					"indices":47
				}
			]
		},
		{
			"name":"Cube.009",
			"primitives":[
				{
					"attributes":{
						"POSITION":48,
						"TEXCOORD_0":49,
						"NORMAL":50
					},
					"indices":51
				}
			]
		},
		{
			"name":"Cube.010",
			"primitives":[
				{
					"attributes":{
						"POSITION":52,
						"TEXCOORD_0":53,
						"NORMAL":54
					},
					"indices":55
				}
			]
		},
		{
			"name":"Cube.012",
			"primitives":[
				{
					"attributes":{
						"POSITION":56,
						"TEXCOORD_0":57,
						"NORMAL":58
					},
					"indices":59
				}
			]
		},
		{
			"name":"Cube.016",
			"primitives":[
				{
					"attributes":{
						"POSITION":60,
						"TEXCOORD_0":61,
						"NORMAL":62
					},
					"indices":63
				}
			]
		},
		{
			"name":"Cube.024",
			"primitives":[
				{
					"attributes":{
						"POSITION":64,
						"TEXCOORD_0":65,
						"NORMAL":66
					},
					"indices":67
				}
			]
		},
		{
			"name":"Cube.025",
			"primitives":[
				{
					"attributes":{
						"POSITION":68,
						"TEXCOORD_0":69,
						"NORMAL":70
					},
					"indices":71
				}
			]
		}
	],
	"accessors":[
		{
			"bufferView":0,
			"componentType":5126,
			"count":665,
			"max":[
				2.0983757972717285,
				0.6300470232963562,
				2.21417236328125
			],
			"min":[
				-0.05100266635417938,
				0,
				0.7429692149162292
			],
			"type":"VEC3"
		},
		{
			"bufferView":1,
			"componentType":5126,
			"count":665,
			"type":"VEC2"
		},
		{
			"bufferView":2,
			"componentType":5126,
			"count":665,
			"type":"VEC3"
		},
		{
			"bufferView":3,
			"componentType":5123,
			"count":1479,
			"type":"SCALAR"
		},
		{
			"bufferView":4,
			"componentType":5126,
			"count":263,
			"max":[
				2.4301717281341553,
				0.6300470232963562,
				-0.009431123733520508
			],
			"min":[
				1.8194491863250732,
				0,
				-0.5426738858222961
			],
			"type":"VEC3"
		},
		{
			"bufferView":5,
			"componentType":5126,
			"count":263,
			"type":"VEC2"
		},
		{
			"bufferView":6,
			"componentType":5126,
			"count":263,
			"type":"VEC3"
		},
		{
			"bufferView":7,
			"componentType":5123,
			"count":840,
			"type":"SCALAR"
		},
		{
			"bufferView":8,
			"componentType":5126,
			"count":201,
			"max":[
				1.4685113430023193,
				0.6142958402633667,
				-0.3877144455909729
			],
			"min":[
				0.9854024648666382,
				0,
				-0.9209571480751038
			],
			"type":"VEC3"
		},
		{
			"bufferView":9,
			"componentType":5126,
			"count":201,
			"type":"VEC2"
		},
		{
			"bufferView":10,
			"componentType":5126,
			"count":201,
			"type":"VEC3"
		},
		{
			"bufferView":11,
			"componentType":5123,
			"count":582,
			"type":"SCALAR"
		},
		{
			"bufferView":12,
			"componentType":5126,
			"count":888,
			"max":[
				2.543565511703491,
				0.6431728601455688,
				-0.3491568863391876
			],
			"min":[
				0.2470667064189911,
				0,
				-2.403372287750244
			],
			"type":"VEC3"
		},
		{
			"bufferView":13,
			"componentType":5126,
			"count":888,
			"type":"VEC2"
		},
		{
			"bufferView":14,
			"componentType":5126,
			"count":888,
			"type":"VEC3"
		},
		{
			"bufferView":15,
			"componentType":5123,
			"count":1986,
			"type":"SCALAR"
		},
		{
			"bufferView":16,
			"componentType":5126,
			"count":564,
			"max":[
				1.0580298900604248,
				0.308773010969162,
				0.7553337812423706
			],
			"min":[
				-0.7992954254150391,
				-0.3055228292942047,
				-0.5638267993927002
			],
			"type":"VEC3"
		},
		{
			"bufferView":17,
			"componentType":5126,
			"count":564,
			"type":"VEC2"
		},
		{
			"bufferView":18,
			"componentType":5126,
			"count":564,
			"type":"VEC3"
		},
		{
			"bufferView":19,
			"componentType":5123,
			"count":1116,
			"type":"SCALAR"
		},
		{
			"bufferView":20,
			"componentType":5126,
			"count":680,
			"max":[
				0.15988826751708984,
				0.61240553855896,
				-2.1369144916534424
			],
			"min":[
				-1.218339443206787,
				0,
				-3.718594551086426
			],
			"type":"VEC3"
		},
		{
			"bufferView":21,
			"componentType":5126,
			"count":680,
			"type":"VEC2"
		},
		{
			"bufferView":22,
			"componentType":5126,
			"count":680,
			"type":"VEC3"
		},
		{
			"bufferView":23,
			"componentType":5123,
			"count":1518,
			"type":"SCALAR"
		},
		{
			"bufferView":24,
			"componentType":5126,
			"count":72,
			"max":[
				-0.9834439158439636,
				0.43548843264579773,
				3.4185919761657715
			],
			"min":[
				-2.1946463584899902,
				0,
				2.819795608520508
			],
			"type":"VEC3"
		},
		{
			"bufferView":25,
			"componentType":5126,
			"count":72,
			"type":"VEC2"
		},
		{
			"bufferView":26,
			"componentType":5126,
			"count":72,
			"type":"VEC3"
		},
		{
			"bufferView":27,
			"componentType":5123,
			"count":132,
			"type":"SCALAR"
		},
		{
			"bufferView":28,
			"componentType":5126,
			"count":96,
			"max":[
				-0.5754010081291199,
				0.6037954688072205,
				-2.7831838130950928
			],
			"min":[
				-1.0741885900497437,
				0,
				-3.0850813388824463
			],
			"type":"VEC3"
		},
		{
			"bufferView":29,
			"componentType":5126,
			"count":96,
			"type":"VEC2"
		},
		{
			"bufferView":30,
			"componentType":5126,
			"count":96,
			"type":"VEC3"
		},
		{
			"bufferView":31,
			"componentType":5123,
			"count":180,
			"type":"SCALAR"
		},
		{
			"bufferView":32,
			"componentType":5126,
			"count":378,
			"max":[
				2.095737934112549,
				0.6234844326972961,
				-2.290959119796753
			],
			"min":[
				-0.6410307884216309,
				0,
				-4.108908653259277
			],
			"type":"VEC3"
		},
		{
			"bufferView":33,
			"componentType":5126,
			"count":378,
			"type":"VEC2"
		},
		{
			"bufferView":34,
			"componentType":5126,
			"count":378,
			"type":"VEC3"
		},
		{
			"bufferView":35,
			"componentType":5123,
			"count":744,
			"type":"SCALAR"
		},
		{
			"bufferView":36,
			"componentType":5126,
			"count":366,
			"max":[
				0.8673399090766907,
				0.3208930790424347,
				0.8997379541397095
			],
			"min":[
				-0.779971718788147,
				-0.3157173693180084,
				-0.6163135766983032
			],
			"type":"VEC3"
		},
		{
			"bufferView":37,
			"componentType":5126,
			"count":366,
			"type":"VEC2"
		},
		{
			"bufferView":38,
			"componentType":5126,
			"count":366,
			"type":"VEC3"
		},
		{
			"bufferView":39,
			"componentType":5123,
			"count":720,
			"type":"SCALAR"
		},
		{
			"bufferView":40,
			"componentType":5126,
			"count":72,
			"max":[
				-0.16849525272846222,
				0.6234844326972961,
				-1.2146281003952026
			],
			"min":[
				-0.4966449737548828,
				0,
				-1.5887188911437988
			],
			"type":"VEC3"
		},
		{
			"bufferView":41,
			"componentType":5126,
			"count":72,
			"type":"VEC2"
		},
		{
			"bufferView":42,
			"componentType":5126,
			"count":72,
			"type":"VEC3"
		},
		{
			"bufferView":43,
			"componentType":5123,
			"count":132,
			"type":"SCALAR"
		},
		{
			"bufferView":44,
			"componentType":5126,
			"count":402,
			"max":[
				0.285766065120697,
				0.6061652898788452,
				1.5244476795196533
			],
			"min":[
				-1.5783063173294067,
				0,
				0.3804816007614136
			],
			"type":"VEC3"
		},
		{
			"bufferView":45,
			"componentType":5126,
			"count":402,
			"type":"VEC2"
		},
		{
			"bufferView":46,
			"componentType":5126,
			"count":402,
			"type":"VEC3"
		},
		{
			"bufferView":47,
			"componentType":5123,
			"count":792,
			"type":"SCALAR"
		},
		{
			"bufferView":48,
			"componentType":5126,
			"count":90,
			"max":[
				0.242689847946167,
				0.3332357406616211,
				0.157193124294281
			],
			"min":[
				-0.21172237396240234,
				-0.33323588967323303,
				-0.13565050065517426
			],
			"type":"VEC3"
		},
		{
			"bufferView":49,
			"componentType":5126,
			"count":90,
			"type":"VEC2"
		},
		{
			"bufferView":50,
			"componentType":5126,
			"count":90,
			"type":"VEC3"
		},
		{
			"bufferView":51,
			"componentType":5123,
			"count":168,
			"type":"SCALAR"
		},
		{
			"bufferView":52,
			"componentType":5126,
			"count":48,
			"max":[
				3.155059814453125,
				0.2577958405017853,
				-2.5855565071105957
			],
			"min":[
				2.7694709300994873,
				0,
				-2.9711456298828125
			],
			"type":"VEC3"
		},
		{
			"bufferView":53,
			"componentType":5126,
			"count":48,
			"type":"VEC2"
		},
		{
			"bufferView":54,
			"componentType":5126,
			"count":48,
			"type":"VEC3"
		},
		{
			"bufferView":55,
			"componentType":5123,
			"count":84,
			"type":"SCALAR"
		},
		{
			"bufferView":56,
			"componentType":5126,
			"count":36,
			"max":[
				3.7107620239257812,
				0.13376206159591675,
				-2.5628750324249268
			],
			"min":[
				3.449923038482666,
				0,
				-2.755669593811035
			],
			"type":"VEC3"
		},
		{
			"bufferView":57,
			"componentType":5126,
			"count":36,
			"type":"VEC2"
		},
		{
			"bufferView":58,
			"componentType":5126,
			"count":36,
			"type":"VEC3"
		},
		{
			"bufferView":59,
			"componentType":5123,
			"count":60,
			"type":"SCALAR"
		},
		{
			"bufferView":60,
			"componentType":5126,
			"count":126,
			"max":[
				2.2387819290161133,
				0.6330047249794006,
				0.4140506982803345
			],
			"min":[
				1.6453402042388916,
				0,
				-0.042240262031555176
			],
			"type":"VEC3"
		},
		{
			"bufferView":61,
			"componentType":5126,
			"count":126,
			"type":"VEC2"
		},
		{
			"bufferView":62,
			"componentType":5126,
			"count":126,
			"type":"VEC3"
		},
		{
			"bufferView":63,
			"componentType":5123,
			"count":240,
			"type":"SCALAR"
		},
		{
			"bufferView":64,
			"componentType":5126,
			"count":852,
			"max":[
				0.22086989879608154,
				0.6213319897651672,
				3.081533193588257
			],
			"min":[
				-1.9003442525863647,
				0,
				1.3210926055908203
			],
			"type":"VEC3"
		},
		{
			"bufferView":65,
			"componentType":5126,
			"count":852,
			"type":"VEC2"
		},
		{
			"bufferView":66,
			"componentType":5126,
			"count":852,
			"type":"VEC3"
		},
		{
			"bufferView":67,
			"componentType":5123,
			"count":1692,
			"type":"SCALAR"
		},
		{
			"bufferView":68,
			"componentType":5126,
			"count":174,
			"max":[
				-1.1015801429748535,
				0.6096412539482117,
				-1.221460223197937
			],
			"min":[
				-1.5711653232574463,
				0,
				-1.7238959074020386
			],
			"type":"VEC3"
		},
		{
			"bufferView":69,
			"componentType":5126,
			"count":174,
			"type":"VEC2"
		},
		{
			"bufferView":70,
			"componentType":5126,
			"count":174,
			"type":"VEC3"
		},
		{
			"bufferView":71,
			"componentType":5123,
			"count":312,
			"type":"SCALAR"
		}
	],
	"bufferViews":[
		{
			"buffer":0,
			"byteLength":7980,
			"byteOffset":0,
			"target":34962
		},
		{
			"buffer":0,
			"byteLength":5320,
			"byteOffset":7980,
			"target":34962
		},
		{
			"buffer":0,
			"byteLength":7980,
			"byteOffset":13300,
			"target":34962
		},
		{
			"buffer":0,
			"byteLength":2958,
			"byteOffset":21280,
			"target":34963
		},
		{
			"buffer":0,
			"byteLength":3156,
			"byteOffset":24240,
			"target":34962
		},
		{
			"buffer":0,
			"byteLength":2104,
			"byteOffset":27396,
			"target":34962
		},
		{
			"buffer":0,
			"byteLength":3156,
			"byteOffset":29500,
			"target":34962
		},
		{
			"buffer":0,
			"byteLength":1680,
			"byteOffset":32656,
			"target":34963
		},
		{
			"buffer":0,
			"byteLength":2412,
			"byteOffset":34336,
			"target":34962
		},
		{
			"buffer":0,
			"byteLength":1608,
			"byteOffset":36748,
			"target":34962
		},
		{
			"buffer":0,
			"byteLength":2412,
			"byteOffset":38356,
			"target":34962
		},
		{
			"buffer":0,
			"byteLength":1164,
			"byteOffset":40768,
			"target":34963
		},
		{
			"buffer":0,
			"byteLength":10656,
			"byteOffset":41932,
			"target":34962
		},
		{
			"buffer":0,
			"byteLength":7104,
			"byteOffset":52588,
			"target":34962
		},
		{
			"buffer":0,
			"byteLength":10656,
			"byteOffset":59692,
			"target":34962
		},
		{
			"buffer":0,
			"byteLength":3972,
			"byteOffset":70348,
			"target":34963
		},
		{
			"buffer":0,
			"byteLength":6768,
			"byteOffset":74320,
			"target":34962
		},
		{
			"buffer":0,
			"byteLength":4512,
			"byteOffset":81088,
			"target":34962
		},
		{
			"buffer":0,
			"byteLength":6768,
			"byteOffset":85600,
			"target":34962
		},
		{
			"buffer":0,
			"byteLength":2232,
			"byteOffset":92368,
			"target":34963
		},
		{
			"buffer":0,
			"byteLength":8160,
			"byteOffset":94600,
			"target":34962
		},
		{
			"buffer":0,
			"byteLength":5440,
			"byteOffset":102760,
			"target":34962
		},
		{
			"buffer":0,
			"byteLength":8160,
			"byteOffset":108200,
			"target":34962
		},
		{
			"buffer":0,
			"byteLength":3036,
			"byteOffset":116360,
			"target":34963
		},
		{
			"buffer":0,
			"byteLength":864,
			"byteOffset":119396,
			"target":34962
		},
		{
			"buffer":0,
			"byteLength":576,
			"byteOffset":120260,
			"target":34962
		},
		{
			"buffer":0,
			"byteLength":864,
			"byteOffset":120836,
			"target":34962
		},
		{
			"buffer":0,
			"byteLength":264,
			"byteOffset":121700,
			"target":34963
		},
		{
			"buffer":0,
			"byteLength":1152,
			"byteOffset":121964,
			"target":34962
		},
		{
			"buffer":0,
			"byteLength":768,
			"byteOffset":123116,
			"target":34962
		},
		{
			"buffer":0,
			"byteLength":1152,
			"byteOffset":123884,
			"target":34962
		},
		{
			"buffer":0,
			"byteLength":360,
			"byteOffset":125036,
			"target":34963
		},
		{
			"buffer":0,
			"byteLength":4536,
			"byteOffset":125396,
			"target":34962
		},
		{
			"buffer":0,
			"byteLength":3024,
			"byteOffset":129932,
			"target":34962
		},
		{
			"buffer":0,
			"byteLength":4536,
			"byteOffset":132956,
			"target":34962
		},
		{
			"buffer":0,
			"byteLength":1488,
			"byteOffset":137492,
			"target":34963
		},
		{
			"buffer":0,
			"byteLength":4392,
			"byteOffset":138980,
			"target":34962
		},
		{
			"buffer":0,
			"byteLength":2928,
			"byteOffset":143372,
			"target":34962
		},
		{
			"buffer":0,
			"byteLength":4392,
			"byteOffset":146300,
			"target":34962
		},
		{
			"buffer":0,
			"byteLength":1440,
			"byteOffset":150692,
			"target":34963
		},
		{
			"buffer":0,
			"byteLength":864,
			"byteOffset":152132,
			"target":34962
		},
		{
			"buffer":0,
			"byteLength":576,
			"byteOffset":152996,
			"target":34962
		},
		{
			"buffer":0,
			"byteLength":864,
			"byteOffset":153572,
			"target":34962
		},
		{
			"buffer":0,
			"byteLength":264,
			"byteOffset":154436,
			"target":34963
		},
		{
			"buffer":0,
			"byteLength":4824,
			"byteOffset":154700,
			"target":34962
		},
		{
			"buffer":0,
			"byteLength":3216,
			"byteOffset":159524,
			"target":34962
		},
		{
			"buffer":0,
			"byteLength":4824,
			"byteOffset":162740,
			"target":34962
		},
		{
			"buffer":0,
			"byteLength":1584,
			"byteOffset":167564,
			"target":34963
		},
		{
			"buffer":0,
			"byteLength":1080,
			"byteOffset":169148,
			"target":34962
		},
		{
			"buffer":0,
			"byteLength":720,
			"byteOffset":170228,
			"target":34962
		},
		{
			"buffer":0,
			"byteLength":1080,
			"byteOffset":170948,
			"target":34962
		},
		{
			"buffer":0,
			"byteLength":336,
			"byteOffset":172028,
			"target":34963
		},
		{
			"buffer":0,
			"byteLength":576,
			"byteOffset":172364,
			"target":34962
		},
		{
			"buffer":0,
			"byteLength":384,
			"byteOffset":172940,
			"target":34962
		},
		{
			"buffer":0,
			"byteLength":576,
			"byteOffset":173324,
			"target":34962
		},
		{
			"buffer":0,
			"byteLength":168,
			"byteOffset":173900,
			"target":34963
		},
		{
			"buffer":0,
			"byteLength":432,
			"byteOffset":174068,
			"target":34962
		},
		{
			"buffer":0,
			"byteLength":288,
			"byteOffset":174500,
			"target":34962
		},
		{
			"buffer":0,
			"byteLength":432,
			"byteOffset":174788,
			"target":34962
		},
		{
			"buffer":0,
			"byteLength":120,
			"byteOffset":175220,
			"target":34963
		},
		{
			"buffer":0,
			"byteLength":1512,
			"byteOffset":175340,
			"target":34962
		},
		{
			"buffer":0,
			"byteLength":1008,
			"byteOffset":176852,
			"target":34962
		},
		{
			"buffer":0,
			"byteLength":1512,
			"byteOffset":177860,
			"target":34962
		},
		{
			"buffer":0,
			"byteLength":480,
			"byteOffset":179372,
			"target":34963
		},
		{
			"buffer":0,
			"byteLength":10224,
			"byteOffset":179852,
			"target":34962
		},
		{
			"buffer":0,
			"byteLength":6816,
			"byteOffset":190076,
			"target":34962
		},
		{
			"buffer":0,
			"byteLength":10224,
			"byteOffset":196892,
			"target":34962
		},
		{
			"buffer":0,
			"byteLength":3384,
			"byteOffset":207116,
			"target":34963
		},
		{
			"buffer":0,
			"byteLength":2088,
			"byteOffset":210500,
			"target":34962
		},
		{
			"buffer":0,
			"byteLength":1392,
			"byteOffset":212588,
			"target":34962
		},
		{
			"buffer":0,
			"byteLength":2088,
			"byteOffset":213980,
			"target":34962
		},
		{
			"buffer":0,
			"byteLength":624,
			"byteOffset":216068,
			"target":34963
		}
	],
	"buffers":[
		{
			"byteLength":216692,
			"uri":"data:application/octet-stream;base64,"
		}
	]
}
