{
	"asset":{
		"generator":"Khronos glTF Blender I/O v3.5.30",
		"version":"2.0"
	},
	"scene":0,
	"scenes":[
		{
			"name":"Scene",
			"nodes":[
				5
			]
		}
	],
	"nodes":[
		{
			"mesh":0,
			"name":"Roundcube.007",
			"rotation":[
				-0.7107535600662231,
				0.00425068661570549,
				0.002657913137227297,
				0.703423261642456
			],
			"scale":[
				-0.018714267760515213,
				-0.018714264035224915,
				-0.018714262172579765
			],
			"translation":[
				-0.03702694922685623,
				0.001889694482088089,
				0.17423006892204285
			]
		},
		{
			"mesh":1,
			"name":"Roundcube.008",
			"rotation":[
				-0.7107535600662231,
				0.00425068661570549,
				0.002657913137227297,
				0.703423261642456
			],
			"scale":[
				-0.018714267760515213,
				-0.018714264035224915,
				-0.018714262172579765
			],
			"translation":[
				-0.13788029551506042,
				0.0021219835616648197,
				0.1752142608165741
			]
		},
		{
			"mesh":2,
			"name":"Roundcube.009",
			"rotation":[
				-0.7107535600662231,
				0.004250688478350639,
				0.0026579140685498714,
				0.7034232020378113
			],
			"scale":[
				-0.021828925237059593,
				-0.021828921511769295,
				-0.021828921511769295
			],
			"translation":[
				0.06301957368850708,
				0.00165926618501544,
				0.17325371503829956
			]
		},
		{
			"mesh":3,
			"name":"Roundcube.010",
			"rotation":[
				-0.7107535600662231,
				0.00425068661570549,
				0.002657913137227297,
				0.703423261642456
			],
			"scale":[
				-0.018714267760515213,
				-0.018714264035224915,
				-0.018714262172579765
			],
			"translation":[
				-0.08485250920057297,
				0.002619487466290593,
				0.2344045788049698
			]
		},
		{
			"mesh":4,
			"name":"Roundcube.011",
			"rotation":[
				-0.7107535600662231,
				0.00425068661570549,
				0.002657913137227297,
				0.703423261642456
			],
			"scale":[
				-0.018714267760515213,
				-0.018714264035224915,
				-0.018714262172579765
			],
			"translation":[
				0.01519401092082262,
				0.0023890575394034386,
				0.23342826962471008
			]
		},
		{
			"children":[
				0,
				1,
				2,
				3,
				4
			],
			"mesh":5,
			"name":"Curve",
			"rotation":[
				0.6739804148674011,
				0.009002282284200191,
				-0.019566426053643227,
				0.7384352684020996
			]
		}
	],
	"animations":[
		{
			"channels":[
				{
					"sampler":0,
					"target":{
						"node":5,
						"path":"rotation"
					}
				}
			],
			"name":"CurveAction",
			"samplers":[
				{
					"input":14,
					"interpolation":"STEP",
					"output":15
				}
			]
		},
		{
			"channels":[
				{
					"sampler":0,
					"target":{
						"node":0,
						"path":"scale"
					}
				}
			],
			"name":"Roundcube.007Action",
			"samplers":[
				{
					"input":16,
					"interpolation":"LINEAR",
					"output":17
				}
			]
		},
		{
			"channels":[
				{
					"sampler":0,
					"target":{
						"node":1,
						"path":"scale"
					}
				}
			],
			"name":"Roundcube.007Action.004",
			"samplers":[
				{
					"input":18,
					"interpolation":"LINEAR",
					"output":19
				}
			]
		},
		{
			"channels":[
				{
					"sampler":0,
					"target":{
						"node":2,
						"path":"scale"
					}
				}
			],
			"name":"Roundcube.007Action.005",
			"samplers":[
				{
					"input":20,
					"interpolation":"LINEAR",
					"output":21
				}
			]
		},
		{
			"channels":[
				{
					"sampler":0,
					"target":{
						"node":3,
						"path":"scale"
					}
				}
			],
			"name":"Roundcube.007Action.006",
			"samplers":[
				{
					"input":22,
					"interpolation":"LINEAR",
					"output":23
				}
			]
		},
		{
			"channels":[
				{
					"sampler":0,
					"target":{
						"node":4,
						"path":"scale"
					}
				}
			],
			"name":"Roundcube.007Action.007",
			"samplers":[
				{
					"input":24,
					"interpolation":"LINEAR",
					"output":25
				}
			]
		}
	],
	"materials":[
		{
			"doubleSided":true,
			"name":"Material.002",
			"pbrMetallicRoughness":{
				"metallicFactor":0
			}
		}
	],
	"meshes":[
		{
			"name":"Roundcube.006",
			"primitives":[
				{
					"attributes":{
						"POSITION":0,
						"NORMAL":1
					},
					"indices":2,
					"material":0
				}
			]
		},
		{
			"name":"Roundcube.010",
			"primitives":[
				{
					"attributes":{
						"POSITION":3,
						"NORMAL":4
					},
					"indices":2,
					"material":0
				}
			]
		},
		{
			"name":"Roundcube.011",
			"primitives":[
				{
					"attributes":{
						"POSITION":5,
						"NORMAL":6
					},
					"indices":2,
					"material":0
				}
			]
		},
		{
			"name":"Roundcube.012",
			"primitives":[
				{
					"attributes":{
						"POSITION":7,
						"NORMAL":8
					},
					"indices":2,
					"material":0
				}
			]
		},
		{
			"name":"Roundcube.013",
			"primitives":[
				{
					"attributes":{
						"POSITION":9,
						"NORMAL":10
					},
					"indices":2,
					"material":0
				}
			]
		},
		{
			"name":"Mesh.001",
			"primitives":[
				{
					"attributes":{
						"POSITION":11,
						"NORMAL":12
					},
					"indices":13,
					"material":0
				}
			]
		}
	],
	"accessors":[
		{
			"bufferView":0,
			"componentType":5126,
			"count":386,
			"max":[
				1,
				1,
				1
			],
			"min":[
				-1,
				-1,
				-1
			],
			"type":"VEC3"
		},
		{
			"bufferView":1,
			"componentType":5126,
			"count":386,
			"type":"VEC3"
		},
		{
			"bufferView":2,
			"componentType":5123,
			"count":2304,
			"type":"SCALAR"
		},
		{
			"bufferView":3,
			"componentType":5126,
			"count":386,
			"max":[
				1,
				1,
				1
			],
			"min":[
				-1,
				-1,
				-1
			],
			"type":"VEC3"
		},
		{
			"bufferView":4,
			"componentType":5126,
			"count":386,
			"type":"VEC3"
		},
		{
			"bufferView":5,
			"componentType":5126,
			"count":386,
			"max":[
				1,
				1,
				1
			],
			"min":[
				-1,
				-1,
				-1
			],
			"type":"VEC3"
		},
		{
			"bufferView":6,
			"componentType":5126,
			"count":386,
			"type":"VEC3"
		},
		{
			"bufferView":7,
			"componentType":5126,
			"count":386,
			"max":[
				1,
				1,
				1
			],
			"min":[
				-1,
				-1,
				-1
			],
			"type":"VEC3"
		},
		{
			"bufferView":8,
			"componentType":5126,
			"count":386,
			"type":"VEC3"
		},
		{
			"bufferView":9,
			"componentType":5126,
			"count":386,
			"max":[
				1,
				1,
				1
			],
			"min":[
				-1,
				-1,
				-1
			],
			"type":"VEC3"
		},
		{
			"bufferView":10,
			"componentType":5126,
			"count":386,
			"type":"VEC3"
		},
		{
			"bufferView":11,
			"componentType":5126,
			"count":212,
			"max":[
				0.194672092795372,
				0.037914782762527466,
				0.09872535616159439
			],
			"min":[
				-0.25784194469451904,
				0.0008253711275756359,
				-0.15261827409267426
			],
			"type":"VEC3"
		},
		{
			"bufferView":12,
			"componentType":5126,
			"count":212,
			"type":"VEC3"
		},
		{
			"bufferView":13,
			"componentType":5123,
			"count":1260,
			"type":"SCALAR"
		},
		{
			"bufferView":14,
			"componentType":5126,
			"count":1,
			"max":[
				0.03333333333333333
			],
			"min":[
				0.03333333333333333
			],
			"type":"SCALAR"
		},
		{
			"bufferView":15,
			"componentType":5126,
			"count":1,
			"type":"VEC4"
		},
		{
			"bufferView":16,
			"componentType":5126,
			"count":23,
			"max":[
				0.7666666666666667
			],
			"min":[
				0.03333333333333333
			],
			"type":"SCALAR"
		},
		{
			"bufferView":17,
			"componentType":5126,
			"count":23,
			"type":"VEC3"
		},
		{
			"bufferView":18,
			"componentType":5126,
			"count":23,
			"max":[
				1.0666666666666667
			],
			"min":[
				0.3333333333333333
			],
			"type":"SCALAR"
		},
		{
			"bufferView":19,
			"componentType":5126,
			"count":23,
			"type":"VEC3"
		},
		{
			"bufferView":20,
			"componentType":5126,
			"count":23,
			"max":[
				2.066666666666667
			],
			"min":[
				1.3333333333333333
			],
			"type":"SCALAR"
		},
		{
			"bufferView":21,
			"componentType":5126,
			"count":23,
			"type":"VEC3"
		},
		{
			"bufferView":22,
			"componentType":5126,
			"count":23,
			"max":[
				2.4
			],
			"min":[
				1.6666666666666667
			],
			"type":"SCALAR"
		},
		{
			"bufferView":23,
			"componentType":5126,
			"count":23,
			"type":"VEC3"
		},
		{
			"bufferView":24,
			"componentType":5126,
			"count":23,
			"max":[
				2.8666666666666667
			],
			"min":[
				2.1333333333333333
			],
			"type":"SCALAR"
		},
		{
			"bufferView":25,
			"componentType":5126,
			"count":23,
			"type":"VEC3"
		}
	],
	"bufferViews":[
		{
			"buffer":0,
			"byteLength":4632,
			"byteOffset":0,
			"target":34962
		},
		{
			"buffer":0,
			"byteLength":4632,
			"byteOffset":4632,
			"target":34962
		},
		{
			"buffer":0,
			"byteLength":4608,
			"byteOffset":9264,
			"target":34963
		},
		{
			"buffer":0,
			"byteLength":4632,
			"byteOffset":13872,
			"target":34962
		},
		{
			"buffer":0,
			"byteLength":4632,
			"byteOffset":18504,
			"target":34962
		},
		{
			"buffer":0,
			"byteLength":4632,
			"byteOffset":23136,
			"target":34962
		},
		{
			"buffer":0,
			"byteLength":4632,
			"byteOffset":27768,
			"target":34962
		},
		{
			"buffer":0,
			"byteLength":4632,
			"byteOffset":32400,
			"target":34962
		},
		{
			"buffer":0,
			"byteLength":4632,
			"byteOffset":37032,
			"target":34962
		},
		{
			"buffer":0,
			"byteLength":4632,
			"byteOffset":41664,
			"target":34962
		},
		{
			"buffer":0,
			"byteLength":4632,
			"byteOffset":46296,
			"target":34962
		},
		{
			"buffer":0,
			"byteLength":2544,
			"byteOffset":50928,
			"target":34962
		},
		{
			"buffer":0,
			"byteLength":2544,
			"byteOffset":53472,
			"target":34962
		},
		{
			"buffer":0,
			"byteLength":2520,
			"byteOffset":56016,
			"target":34963
		},
		{
			"buffer":0,
			"byteLength":4,
			"byteOffset":58536
		},
		{
			"buffer":0,
			"byteLength":16,
			"byteOffset":58540
		},
		{
			"buffer":0,
			"byteLength":92,
			"byteOffset":58556
		},
		{
			"buffer":0,
			"byteLength":276,
			"byteOffset":58648
		},
		{
			"buffer":0,
			"byteLength":92,
			"byteOffset":58924
		},
		{
			"buffer":0,
			"byteLength":276,
			"byteOffset":59016
		},
		{
			"buffer":0,
			"byteLength":92,
			"byteOffset":59292
		},
		{
			"buffer":0,
			"byteLength":276,
			"byteOffset":59384
		},
		{
			"buffer":0,
			"byteLength":92,
			"byteOffset":59660
		},
		{
			"buffer":0,
			"byteLength":276,
			"byteOffset":59752
		},
		{
			"buffer":0,
			"byteLength":92,
			"byteOffset":60028
		},
		{
			"buffer":0,
			"byteLength":276,
			"byteOffset":60120
		}
	],
	"buffers":[
		{
			"byteLength":60396,
			"uri":"data:application/octet-stream;base64,"
		}
	]
}
